<mxfile host="app.diagrams.net" modified="2022-04-16T13:24:37.515Z" agent="5.0 (Windows NT 10.0; Win64; x64) AppleWebKit/537.36 (KHTML, like Gecko) Chrome/100.0.4896.88 Safari/537.36" etag="Df5iKQ9fTuwuFvEIn1_B" version="17.4.5" type="github">
  <diagram id="Tzj7tBu5bxxEBxVE_faB" name="Page-1">
    <mxGraphModel dx="1422" dy="697" grid="1" gridSize="10" guides="1" tooltips="1" connect="1" arrows="1" fold="1" page="1" pageScale="1" pageWidth="1169" pageHeight="827" math="0" shadow="0">
      <root>
        <mxCell id="0" />
        <mxCell id="1" parent="0" />
        <mxCell id="sRDBOejRmwt0T2uJG1Oe-29" value="" style="rounded=0;whiteSpace=wrap;html=1;dashed=1;fontSize=16;fillColor=#ffe6cc;strokeColor=#d79b00;" vertex="1" parent="1">
          <mxGeometry x="330" y="440" width="500" height="150" as="geometry" />
        </mxCell>
        <mxCell id="sRDBOejRmwt0T2uJG1Oe-3" value="" style="shape=cylinder3;whiteSpace=wrap;html=1;boundedLbl=1;backgroundOutline=1;size=15;rotation=90;" vertex="1" parent="1">
          <mxGeometry x="521.19" y="1.31" width="118.89" height="506.25" as="geometry" />
        </mxCell>
        <mxCell id="sRDBOejRmwt0T2uJG1Oe-2" value="" style="shape=image;verticalLabelPosition=bottom;labelBackgroundColor=default;verticalAlign=top;aspect=fixed;imageAspect=0;image=data:image/png,iVBORw0KGgoAAAANSUhEUgAAAaQAAAGkBAMAAACMYkwGAAAAMFBMVEX9ZAL2o2j9zqyotK78XQDM09D62MD849H6t4rl6ef6gTL59O/+7OD6+vr/ZgD///+j2RTlAAAQlUlEQVR42u2dXWwcxR3Ah2iVRH4YUWQhRIA4kQW0Dfjh5IcoQuyhFYruYV+sPESocogiigpKCg8JKuB8yC1WqjYPlh8QD3GiE0HOV9WoCsQYNzwQFJVYELWBpOkNaAXIQSPFkT/Pp+3M7Pfe7uzZvvPtHv8RH/b6zt7f/Wb+85+P3UVmyxUESIAESIAESIAESE1Fmjk6QqvK5Il3SrcTS3lTxFvp5APjzUWaKmoEV50WQer7FTnP2O3FhzVU9U6EiXbfeDORFovsHMJIhCEhbUMS0q80FIHE/tHWNxNpl4pJhCPM/i0clDN9zYhwRMVDGCkbmoc0pVKEI5EoUk7Jq14/inovYoWiQqlpSHsQZmcV8VljjElhTEY0p+IoSdYx5dFmIVWGkYpUokdVH4KVjTKkXeytiEYVgonxXLOQ5li0i7bEAwRaKyG6VWQeUeQbWUPEbQebhPTPyPbtljZJY5pi9U7yVuVYk5A65UjoeDzS3bhqZ7s62ySkIpERsY86Humq/NOgzzcHaRHJkYz4+FDaI5VE6fYmIalE+lkb5+OR+uVIJN8cpNkkpNMSJCI33MDOFslzB2mDSECSR0sznUhnZBVPjtQkSzOqvPZILVF5aZKlGT0B6cwKkErpRGpBS6fBElgCS2Dp52KJgCVoS01BOguWwBJYAktgCSyBJbD0c7d0FiyBJbAElqBfAktgCSyBJbAEliB7AEtgCSyBJbAElsASWAJLYAksgaXUIJ1vPUvnwRJYAktgCSyBJbAElsASWAJLq49EwBJYAktgCSyBJbAElsASWAJLYAksgSWwBJbAElgCS2AJLIElsASWwBJYAktgqZUt5dNraWy5SGm1NNZyluJ3IN9ul9/VmRbSaYmsi781/3CCJTSeTqT1sU8i+QonICldqUSicU+6GLt9MwnJeDSdloy4m/OXDiUhkefSiUTWxCD9ByUh0cLBVFY8pD4V/aiLQ2oSEtLeT6UlpOTfNoMdTKVSKlVe1BIlIaxuSCUSUk4cObB//0svvbR79+7NTjmsJNc7ilBhYPMyyhPjja14LBirKFQUTVMJSiIiCBuahpZRRrY00hJ/0E3Vn+RPuaGJSAp7LyZk6USKVjjW0IqHkPgPdv+ieLIXI00M4oTWUDuj6isy8hMNDOKIEmpzBNs+qeXcxPOqlo6EtDONa0srKKzSUrIsTzTpuWHNQlrRxyF/elMWkTBZ13pI+ZareEg62soiEuuc9rVcxTOOtRoSUja2GhI2Wg2JABIgARIgARIgARIgARIgARIgARIgARIgARIgARIgARIgARIgARIgARIgARIgARIgARIgARIgARIgLf/cEA1fnYEzb6nq2gxCa7gEJb1IhIrrLkjYXKYtWVfShJBQttsSjqiJJMNI/FIhRQsXNdNIGKknBkLl8IiWdA1QmiueUdhSddlO5b+blGxaIqzVoHzkdQaV11T5hXdptcQim/pUzB/+nUqziaTEXiw8W8wiEut9JJd0X1Wz2JYwWRv/lxeLOINISHrBTkcWkbD0ViN39Qy2JfkliuXhDEY86VVVptlP4odOqUWS3zzl9xlEKoxLkRbU7IWHhNtF3VXjr3NPK9J2OdKUjmiLIc1gnLW2lHTTnlk2mGo1JJ22HBLKXlebhIRbDwksgSWwBJbAElgCS2AJLIElsASWwBJYAktgCSy1uCWypuUs/TyRMrdkloA0gyhpsfAwI7k/clqRkteXWg1pSs0cEkpAmtP1rIUHlPCYrIUMrgKifVKkS9lDovLbnJudOHuWlNNSpCLN3oo6zicFvMxVPCRtTFdRBtsSNmQ1ryh7YkRagzhFedkOwwwiUemDsvqlT8BI8W7+QtyDUi6rmdz6zjWtj84gpoqYZBQJKSejmP5e1OVPXkn1xT5a2x9fHf34gK+8efGooSOa1YpHVYIinyqVcJFjmpHspzdVP5WKZLXiEWIhBSn59zirQXz5+SEgARIgARIgARIgARIgARIgARIgARIgARIgARIgARIgARIgARIgARIgARIgARIgARIgARIgARIgAVKGkDBJugF7cwpWVmCJppIIkAJIiLQY0mxKkRIuUZMhlXFKkeQXEsqQzGFC0hjxCCETy0XqTycSItLbq0uR/sa3oaNUYSHMelrl+WUjzal8c32qkMRTqNDGZSOZ7ZwIpcoSvyIDTSwf6aqatiyPX2KC1prLRyoP68w0SlHh10Wq+1aAZM4p1c+xam7mQJF2ylwJkvlaUUtZUR8YXxmS+e/Dv0hVeeiXSWeciJS9AkiABEiABEiABEiAVP5odLyeSDfs2xZ8IXnNxQNvV73rzerf83b1O2+Njo6OhQ+yY6MlD2gox8rOUv2Q9tpp/ciJJ2Jf00HPhI70Vd3Tj/2en6rfeYGdbXdYCkfodb6b78mJ0l2qG9IuZ/Sl6Cfj9Hei8Nn2ofA9/ToQ+iEaKRc6Nu9HqthEudzW+iF5UxnKyTgkUoWEqy2RGEu50Cc17UcazLmlt45IYuTFx7bahhgkWgsSjbMUOtfrvmPzHlFVBV0J0ggvRMOxz4lboaUQ0qDvGP+6e+d7Hw3VrqkWpAJvmLc+O2xgapxdNpKkLW0LHuvxTp9Hiu7jYnRds6ZakLCt5nMSd4vI2iy5tXN2ow+pO9zwKzl+rNdtVsc9+OP1QmpzattVneKDy0W6ceWK07UdOu9H6gl9+qz5bHWQejzeMvv6N/W2ZJrtNHrhtxYkr1zWAkisuZRCAe8FG6nsN3Ohxji+JEvmJUzurBypnQSQrocqFGs179lI0/72w4Nfqe6WpvToG/0uEckIIE2HQhmz8Y196EKgrvXU1piWZqk8HB0fVmSJffrPBAMeP9RbDTFYWxhfmiXWmPJ1t1QOtREPqRJMlqarwn0dLJn9tFB3S5VgyGOE22yk+SDsfG090xItddDIu+KuyBKvXsET77WRQloqtaXjS7TUEZ0SrcgSDwLHA9XLQboXajw9VRluWi0FQx6L6eM20oUQ0mBNIW/5benG7s2PfxFAWty9+WAQqfz65jeTLQWR2HmbNlIYobaQt9yIt7jpnKKpkw/6kL4a0bTJd/xIMw8rmvMSc3FggP2eypMDA8PkgwFW/uQgzQeaTI91pDeiol2vG1KgX7KQyn/V+G3tkH7KRZotqvzAXzykxfvZIEtRH7G7aU1lDisGH3kpfASWd5BMf2Cr8G88pHCq9Ey9Lc1g+576f1DFej2lepeD9LROCabEDh8cib1IHLGWVqcwT3kr3jPfPaSeYNrzrIMUDtr1Q/IsLehWHJg12AiXjhB2zt/bSDOIKm3DKrXvA8yQFotUoefYke+tj4NShlTmtwKm4uaFHtKgr4KJhhWPtLXeljrsTPySTtHJtz7e/xi2gnonuXMNGx+89Rk/ULKRFnTjx1cuHtWpLrYpTFHM/l9h42NKJ/kw+YSL5E9cxdcWUjkXMeyos6VZQq09Vu2UfCeafJEax8Tcw512ch972WyRko02UidtYwyL7LVnPUvm6OhYOzk96kzfCSR/yLvA24+FNN84JNfS73SrASwSZyh4E4vz7SQnCTpmjRLJDzZS0TL6pW6lupalqH7J9CeuPfaB3giC2jKipVj62rBbypTuJORlIqZ9Oo0RvN4RmbeQJp3gWLR+gW0pol+yopw7bbd1FZBsS58XWUMRZ3VXJ87s6v0iBHZSd7jbbp15H4sBZ5xfICqnxJIv5JVFHxWDVK6rpVuvHzZ0qljd0E1N2+hOFOctJOd8P7E2cXOkLjdMnpdbEhmDl7SuAhKfxzvHp/GUb62e78uREft0WWOykZyhITN42kJyUqcpLCqnzJKXuE77kKYbiMQ6e76RiJyonh5a0AsWkpO3zhC61kJaExwKyyx5Ie+66KIaj2RPiX8XkYTf1S1L7sxRpSgA+jA57UsMS3JL0+4cw6AYEq0WEp18JArJsmR0BTPbPt91EZ0Ul+SWym7iagWK1UFCGiZ69fbsOdsSnfDGHzycMEtd3kCD92IyS2aPffJ2OG94eMC/vfLWgdePGpTkS3GWvJHhLoHH2pLb8P4n8GSW3CguktZVCuJ8khRFzLU6lryJoz5x6n3Yl+xi3jFJLV2wE9dpdx5lVbpa82lc/VC1OduSh/SJcNKHC76oyJGklu7ZUdz+f+MTogl3rjU45VW+sv9F25K3jLlgI+V9lZPblVpyorjd565e2sqSam+nbPnloyP8qSKFKiQjEklqyUlce9xvGzy4mHCbideYPn3M0MSjaixLa81gy+nD232VM9GSk7jakc9CqkQMAbfV2RL7uJ2TuWw4z0+zLK0LtZwQ0vkES7aesi3LRupp3EB9wl24cObr5gifKBHbrfNhJByNJLVkNyJnej9mOuWeFeLraYkN/aw2U27HFE0+8Pir/7qsJ1uqoS3ZY/VpO/A1ftLLzQycOa9LbJzxwYQ/x1tXFfG2LyXi2SHP6Z5WcWqynbY5oe/H8UD24HVYl2KCuNySlTYMet9FTSD31G8CecJLQK0xN6Z4n+MkH0K6hnmkv+ZDqiF74NFtWyAvipnmL9XbUp81jbLgrW864yWvmu0VOd4nuM09clP0VHJLInxXnCDtLcY8s+QUb4mWLomTM695/ZNlY6/PiWXypg/pGqb7kiyJOjfvDJtWcclsQbQKPpbY5/60IE66zQy2twXsDTc6hLcESzwyuINbb2GzOxjDt9XdktXD8CFRKTDgu4k9bCsq3tWJb1BYMBMt8fjtzrqu4vLzlDVX4gQ+0VMVrEmgLm9Gdo2bBPmXOxIscUPuRNG8t0nAB5Gr4yYB1xIj+N6/ysRkiC99AEzPHREU3bmHKWtmJcESa/vPugnQvLeVY6s/Happ5+TSLFWGRfrgWeqwcjwW1X8yA/N4TI0XFMUks2epP8oSn2Z1huv+xMgTM1jPDTcToVXAfucDnyFWjlcZdr2126Gj3V7CEMsdwdnWft/KrovE+yQ3hZuP2BY1X+uGvCUubPYLP3ucIM7GudaosN/pe1kts+B2if7VXhMIzol30PURSIPBvZK9TlZnx3Wxx7XUAEvWN6yjESf1GqKTVo/EUoZTDuQPTqon1mv4jrfQysVeV6Af6V7Oq2Xz/i2GuRdK9j7kWkL4ki1dw3yBiQUF9ODYxU0GNh4S2QOLD1SsX35NqC2HRT4s6luRWk3Hs8Q67EerkcQm3VIIyXLXvWOH2Nx6/NZH7w7tqLMlO7dh4yR9kmqYFj7UrXpWpMa3W269UcTUmRjrp6Sw5fan57D94EnPEvtE2E8+Gwgizft2es5HbtfNWfur62zJSqp5DKD8knzjjJWJi+ql0HOGTg1nk/KXKjXwJBsqGlaV9CwxgYaz/OQhVXKBUOBEgn/kQqW7zpbs9OGSas2S58fnbEuLRSyW2I373GbSzo/wFXXr7Z4l85D4SQiJR7dt1Uj+jeK5Olnao+mepRlN4wG4cj9nUgpd5l3Nngf70OB7BpS2Lg+/aL3InnWe0nRn/nVK/CSM5Mt3/EjmUN2RPh844iGVBwb+LNAeIxr+9tfsi4Ej9o/eOKdo+MRTvnd+yBelJrc4mYfYnWL/TvZaa5PAN0PvOge/2TnkdKuVoSHfCP3Wuzt8ZefKkaJLeffA4+PBQzeeHHgieGhxc9WLnJ+8PHDkFbMxBS7JAiRAAiRAAiRAamj5PxGeXlHszQh5AAAAAElFTkSuQmCC;" vertex="1" parent="1">
          <mxGeometry x="807" y="232.17000000000002" width="25" height="25" as="geometry" />
        </mxCell>
        <mxCell id="sRDBOejRmwt0T2uJG1Oe-32" style="edgeStyle=orthogonalEdgeStyle;rounded=0;orthogonalLoop=1;jettySize=auto;html=1;exitX=0.5;exitY=0;exitDx=0;exitDy=0;fontSize=10;strokeWidth=3;" edge="1" parent="1" source="sRDBOejRmwt0T2uJG1Oe-5" target="sRDBOejRmwt0T2uJG1Oe-10">
          <mxGeometry relative="1" as="geometry" />
        </mxCell>
        <mxCell id="sRDBOejRmwt0T2uJG1Oe-5" value="" style="rounded=1;whiteSpace=wrap;html=1;fontSize=10;fontStyle=0;" vertex="1" parent="1">
          <mxGeometry x="415.32" y="490" width="319.37" height="50" as="geometry" />
        </mxCell>
        <mxCell id="sRDBOejRmwt0T2uJG1Oe-6" value="" style="strokeWidth=2;outlineConnect=0;dashed=0;align=center;fontSize=8;fillColor=none;verticalLabelPosition=bottom;verticalAlign=top;shape=mxgraph.eip.envelope_wrapper;strokeColor=none;" vertex="1" parent="1">
          <mxGeometry x="415.32" y="320" width="52.14" height="30" as="geometry" />
        </mxCell>
        <mxCell id="sRDBOejRmwt0T2uJG1Oe-31" style="edgeStyle=orthogonalEdgeStyle;rounded=0;orthogonalLoop=1;jettySize=auto;html=1;entryX=0.453;entryY=0;entryDx=0;entryDy=0;entryPerimeter=0;fontSize=10;strokeWidth=3;" edge="1" parent="1" source="sRDBOejRmwt0T2uJG1Oe-7" target="sRDBOejRmwt0T2uJG1Oe-5">
          <mxGeometry relative="1" as="geometry" />
        </mxCell>
        <mxCell id="sRDBOejRmwt0T2uJG1Oe-7" value="" style="rounded=0;whiteSpace=wrap;html=1;fillColor=#fff2cc;dashed=1;strokeColor=#d6b656;" vertex="1" parent="1">
          <mxGeometry x="360" y="225.76" width="200" height="75.66" as="geometry" />
        </mxCell>
        <mxCell id="sRDBOejRmwt0T2uJG1Oe-8" value="&lt;b&gt;Product.Report.Exchange&lt;/b&gt;" style="text;html=1;strokeColor=none;fillColor=none;align=center;verticalAlign=middle;whiteSpace=wrap;rounded=0;dashed=1;" vertex="1" parent="1">
          <mxGeometry x="424" y="198.17" width="60" height="30" as="geometry" />
        </mxCell>
        <mxCell id="sRDBOejRmwt0T2uJG1Oe-10" value="" style="rounded=0;whiteSpace=wrap;html=1;fillColor=#f8cecc;dashed=1;strokeColor=#b85450;" vertex="1" parent="1">
          <mxGeometry x="580" y="225.76" width="200" height="75.66" as="geometry" />
        </mxCell>
        <mxCell id="sRDBOejRmwt0T2uJG1Oe-11" value="&lt;b&gt;Product.Report.DeadLetter.Exchange&lt;/b&gt;" style="text;html=1;strokeColor=none;fillColor=none;align=center;verticalAlign=middle;whiteSpace=wrap;rounded=0;dashed=1;" vertex="1" parent="1">
          <mxGeometry x="651" y="198.17" width="60" height="30" as="geometry" />
        </mxCell>
        <mxCell id="sRDBOejRmwt0T2uJG1Oe-14" value="" style="rounded=0;whiteSpace=wrap;html=1;dashed=1;" vertex="1" parent="1">
          <mxGeometry x="370" y="240.85" width="180" height="31.42" as="geometry" />
        </mxCell>
        <mxCell id="sRDBOejRmwt0T2uJG1Oe-15" value="Product.Report.Queue" style="text;html=1;strokeColor=none;fillColor=none;align=center;verticalAlign=middle;whiteSpace=wrap;rounded=0;dashed=1;fontStyle=1" vertex="1" parent="1">
          <mxGeometry x="430" y="241.14" width="60" height="30" as="geometry" />
        </mxCell>
        <mxCell id="sRDBOejRmwt0T2uJG1Oe-16" value="" style="rounded=0;whiteSpace=wrap;html=1;dashed=1;" vertex="1" parent="1">
          <mxGeometry x="582" y="240.14" width="197" height="31.42" as="geometry" />
        </mxCell>
        <mxCell id="sRDBOejRmwt0T2uJG1Oe-17" value="Product.Report.DeadLetter.Queue" style="text;html=1;align=center;verticalAlign=middle;whiteSpace=wrap;rounded=0;dashed=1;fontStyle=1" vertex="1" parent="1">
          <mxGeometry x="652" y="241.55999999999997" width="60" height="30" as="geometry" />
        </mxCell>
        <mxCell id="sRDBOejRmwt0T2uJG1Oe-20" value="" style="strokeWidth=2;outlineConnect=0;dashed=0;align=center;fontSize=8;fillColor=none;verticalLabelPosition=bottom;verticalAlign=top;shape=mxgraph.eip.envelope_wrapper;strokeColor=none;" vertex="1" parent="1">
          <mxGeometry x="517.86" y="414" width="52.14" height="30" as="geometry" />
        </mxCell>
        <mxCell id="sRDBOejRmwt0T2uJG1Oe-24" value="" style="strokeWidth=2;outlineConnect=0;dashed=0;align=center;fontSize=8;fillColor=none;verticalLabelPosition=bottom;verticalAlign=top;shape=mxgraph.eip.envelope_wrapper;strokeColor=none;" vertex="1" parent="1">
          <mxGeometry x="570" y="414" width="52.14" height="30" as="geometry" />
        </mxCell>
        <mxCell id="sRDBOejRmwt0T2uJG1Oe-25" value="" style="strokeWidth=2;outlineConnect=0;dashed=0;align=center;fontSize=8;fillColor=none;verticalLabelPosition=bottom;verticalAlign=top;shape=mxgraph.eip.envelope_wrapper;strokeColor=none;" vertex="1" parent="1">
          <mxGeometry x="673" y="320" width="52.14" height="30" as="geometry" />
        </mxCell>
        <mxCell id="sRDBOejRmwt0T2uJG1Oe-26" value="&lt;span style=&quot;font-weight: normal&quot;&gt;Consumer throws an exception&lt;/span&gt;" style="text;html=1;strokeColor=none;fillColor=none;align=center;verticalAlign=middle;whiteSpace=wrap;rounded=0;dashed=1;fontStyle=1;fontSize=16;" vertex="1" parent="1">
          <mxGeometry x="420" y="490" width="310" height="50" as="geometry" />
        </mxCell>
        <mxCell id="sRDBOejRmwt0T2uJG1Oe-27" value="Application" style="text;html=1;strokeColor=none;fillColor=none;align=center;verticalAlign=middle;whiteSpace=wrap;rounded=0;dashed=1;fontSize=16;" vertex="1" parent="1">
          <mxGeometry x="340" y="414" width="60" height="30" as="geometry" />
        </mxCell>
        <mxCell id="sRDBOejRmwt0T2uJG1Oe-30" value="Consumer" style="text;html=1;strokeColor=none;fillColor=none;align=center;verticalAlign=middle;whiteSpace=wrap;rounded=0;dashed=1;fontSize=16;" vertex="1" parent="1">
          <mxGeometry x="430" y="460" width="60" height="30" as="geometry" />
        </mxCell>
      </root>
    </mxGraphModel>
  </diagram>
</mxfile>
